# xmcd
#
# Track frame offsets:
#	150
#	15295
#	27342
#	42475
#	64826
#	86311
#	101154
#	116078
#	130030
#	145520
#	166563
#	182508
#	200164
#	214209
#	235975
#	247851
#	256830
#	278763
#	294200
#	306156
#
# Disc length: 4280 seconds
#
# Revision: 1
# Processed by: cddbd v1.5.2PL0 Copyright (c) Steve Scherf et al.
# Submitted via: audiograbber 1.83.01
#
DISCID=0d10b614
DTITLE=Various Artist - Soul Classics, The Sound Of Philadelphia, CD 2: New Re
DTITLE=cordings
DYEAR=2004
DGENRE=Soul
TTITLE0=The Delfonics - La La Means I Love You
TTITLE1=Hall and Oates - Angelina
TTITLE2=Teddy Pendergrass - Only You
TTITLE3=Billy Paul - Me and Mrs. Jones
TTITLE4=The Trammps - You Make Me Feel Brand New
TTITLE5=The Delfonics - Didn't I (Blow Your Mind This Time)
TTITLE6=Harold Melvin and The Blue Notes - Satisfaction Guaranteed
TTITLE7=Hall and Oates - I'll Be By
TTITLE8=The Trammps - Betcha By Golly, Wow!
TTITLE9=Teddy Pendergrass - Close The Door
TTITLE10=The Delfonics - Love Won't Let Me Wait
TTITLE11=The Trammps - Motown Philly
TTITLE12=Hall and Oates - Past Times Behind
TTITLE13=Teddy Pendergrass - Love TKO
TTITLE14=Harold Melvin and The Blue Notes - Get Ready
TTITLE15=The Delfonics - Ready Or Not, Here I Come
TTITLE16=Teddy Pendergrass - The Whole Town's Laughing At Me
TTITLE17=The Trammps - You Are Everything
TTITLE18=Hall and Oates - Perkiomen
TTITLE19=The Trammps - That's Where The Happy People Go
EXTD=
EXTT0=
EXTT1=
EXTT2=
EXTT3=
EXTT4=
EXTT5=
EXTT6=
EXTT7=
EXTT8=
EXTT9=
EXTT10=
EXTT11=
EXTT12=
EXTT13=
EXTT14=
EXTT15=
EXTT16=
EXTT17=
EXTT18=
EXTT19=
PLAYORDER=
